<svg xmlns="http://www.w3.org/2000/svg" viewBox="0 0 32 32">
<circle cx="20" cy="9" r="1.6" fill="#ffd400"/>
<circle cx="24" cy="8" r="1.3" fill="#ffd400"/>
<circle cx="27" cy="11" r="1.1" fill="#ffd400"/>
<circle cx="28" cy="15" r="1" fill="#ffd400"/>
<circle cx="27" cy="19" r="1" fill="#ffd400"/>
<circle cx="24" cy="22" r="1" fill="#ffd400"/>
<path d="M15 3C9 4 5 9 5 15c0 7 6 13 13 13 3 0 6-1 8-3-8 1-15-5-15-13 0-5 2-8 4-9z" fill="#2f6ea5"/>
<path d="M9 15c3 3 8 4 12 2-1 3-4 5-7 5-4 0-7-3-7-7 0-1 1-2 2 0z" fill="#1c4a75"/>
</svg>
